<svg id="Capa_1" data-name="Capa 1" xmlns="http://www.w3.org/2000/svg" viewBox="0 0 494 416.01"><defs><style>.cls-1{fill:#010;}</style></defs><title>hamburger</title><g id="Navigation"><path class="cls-1" d="M37.64,106.39H474.36c15.83,0,28.64-13.05,28.64-29.19S490.19,48,474.36,48H37.64C21.81,48,9,61.1,9,77.2S21.81,106.39,37.64,106.39ZM474.36,226.8H37.64C21.81,226.8,9,239.9,9,256s12.81,29.2,28.64,29.2H474.36c15.83,0,28.64-13.05,28.64-29.2S490.19,226.8,474.36,226.8Zm0,178.8H37.64C21.81,405.6,9,418.71,9,434.8S21.81,464,37.64,464H474.36c15.83,0,28.64-13.06,28.64-29.2S490.19,405.6,474.36,405.6Z" transform="translate(-9 -48)"/></g></svg>