<?xml version="1.0" encoding="UTF-8"?>
<svg width="170px" height="27px" viewBox="0 0 170 27" version="1.1" xmlns="http://www.w3.org/2000/svg" xmlns:xlink="http://www.w3.org/1999/xlink">
    <!-- Generator: Sketch 51.3 (57544) - http://www.bohemiancoding.com/sketch -->
    <title>logo</title>
    <desc>Created with Sketch.</desc>
    <defs>
        <linearGradient x1="50%" y1="96.1772941%" x2="50%" y2="5.74388021%" id="linearGradient-1">
            <stop stop-color="#BFC664" stop-opacity="0.8" offset="0%"></stop>
            <stop stop-color="#CAFD68" stop-opacity="0.895828432" offset="47.9142158%"></stop>
            <stop stop-color="#A9EB81" offset="96.8637103%"></stop>
        </linearGradient>
        <path d="M4.64061394,26.687496 C3.65624101,26.6171839 2.81249303,26.1425757 2.10936997,25.2636712 L0.105468499,22.7851615 C0.0351564344,22.679693 0,22.5654352 0,22.4423889 C0,22.3193426 0.0527342493,22.2226626 0.158202748,22.1523505 L0.843747988,21.625008 C0.914060052,21.554696 1.01074005,21.5283289 1.13378636,21.5459067 C1.25683267,21.5634845 1.35351267,21.625008 1.42382473,21.7304765 L3.48046045,24.3144548 C3.69139745,24.5605482 3.9550687,24.7451181 4.27147419,24.8681644 C4.58787969,24.9912107 4.91307449,25.0263671 5.2470578,24.9736329 C5.58104111,24.9208986 5.87986879,24.7539066 6.14354004,24.4726575 C6.40721129,24.1914084 6.59178116,23.875003 6.69724966,23.523441 L10.7577869,5.91020176 C10.9335674,5.17192227 11.2939187,4.53911128 11.838839,4.01176879 C12.3837593,3.4844263 13.0253596,3.1680208 13.7636391,3.0625523 C14.3612936,2.99224024 14.9413704,3.07134161 15.5038693,3.29985642 C16.0663682,3.52837124 16.5233978,3.88872248 16.8749598,4.38090853 L19.1952667,7.28129224 C19.2655788,7.35160431 19.3007352,7.4482843 19.3007352,7.57133062 C19.3007352,7.69437693 19.248001,7.79105692 19.1425325,7.86136899 L18.5097215,8.38871148 C18.404253,8.45902354 18.2899952,8.48539067 18.1669489,8.46781285 C18.0439026,8.45023504 17.9472226,8.40628929 17.8769105,8.33597723 L15.5566035,5.43559352 C15.380823,5.18950009 15.1347295,5.00493022 14.818324,4.8818839 C14.5019185,4.75883759 14.1767237,4.72368116 13.8427404,4.7764154 C13.5087571,4.82914965 13.2099294,4.99614171 12.9462582,5.27739077 C12.6825869,5.55863983 12.4980171,5.87504533 12.3925486,6.22660726 L8.27927714,23.9980493 C8.10349657,24.8417973 7.67283327,25.5185532 6.98728803,26.0283179 C6.30174279,26.5380825 5.51951836,26.757808 4.64061394,26.687496 Z" id="path-2"></path>
        <path d="M9.64061394,23.687496 C8.65624101,23.6171839 7.81249303,23.1425757 7.10936997,22.2636712 L5.1054685,19.7851615 C5.03515643,19.679693 5,19.5654352 5,19.4423889 C5,19.3193426 5.05273425,19.2226626 5.15820275,19.1523505 L5.84374799,18.625008 C5.91406005,18.554696 6.01074005,18.5283289 6.13378636,18.5459067 C6.25683267,18.5634845 6.35351267,18.625008 6.42382473,18.7304765 L8.48046045,21.3144548 C8.69139745,21.5605482 8.9550687,21.7451181 9.27147419,21.8681644 C9.58787969,21.9912107 9.91307449,22.0263671 10.2470578,21.9736329 C10.5810411,21.9208986 10.8798688,21.7539066 11.14354,21.4726575 C11.4072113,21.1914084 11.5917812,20.875003 11.6972497,20.523441 L15.7577869,2.91020176 C15.9335674,2.17192227 16.2939187,1.53911128 16.838839,1.01176879 C17.3837593,0.484426297 18.0253596,0.168020802 18.7636391,0.0625523031 C19.3612936,-0.00775976107 19.9413704,0.0713416128 20.5038693,0.299856425 C21.0663682,0.528371237 21.5233978,0.888722477 21.8749598,1.38090853 L24.1952667,4.28129224 C24.2655788,4.35160431 24.3007352,4.4482843 24.3007352,4.57133062 C24.3007352,4.69437693 24.248001,4.79105692 24.1425325,4.86136899 L23.5097215,5.38871148 C23.404253,5.45902354 23.2899952,5.48539067 23.1669489,5.46781285 C23.0439026,5.45023504 22.9472226,5.40628929 22.8769105,5.33597723 L20.5566035,2.43559352 C20.380823,2.18950009 20.1347295,2.00493022 19.818324,1.8818839 C19.5019185,1.75883759 19.1767237,1.72368116 18.8427404,1.7764154 C18.5087571,1.82914965 18.2099294,1.99614171 17.9462582,2.27739077 C17.6825869,2.55863983 17.4980171,2.87504533 17.3925486,3.22660726 L13.2792771,20.9980493 C13.1034966,21.8417973 12.6728333,22.5185532 11.987288,23.0283179 C11.3017428,23.5380825 10.5195184,23.757808 9.64061394,23.687496 Z" id="path-3"></path>
    </defs>
    <g id="Symbols" stroke="none" stroke-width="1" fill="none" fill-rule="evenodd">
        <g id="Logo" transform="translate(0.000000, -2.000000)">
            <g id="logo" transform="translate(0.000000, 2.000000)">
                <path d="M31.799,15.475 C31.799,14.5683288 31.9321653,13.7551703 32.1985,13.0355 C32.4648347,12.3158297 32.830331,11.7066692 33.295,11.208 C33.759669,10.7093308 34.3036636,10.329668 34.927,10.069 C35.5503365,9.80833203 36.2189964,9.678 36.933,9.678 C37.6130034,9.678 38.222164,9.81966525 38.7605,10.103 C39.298836,10.3863347 39.7436649,10.7149981 40.095,11.089 L39.007,12.313 C38.7123319,12.0296653 38.4035016,11.8058342 38.0805,11.6415 C37.7574984,11.4771658 37.3806688,11.395 36.95,11.395 C36.4966644,11.395 36.0773353,11.4884991 35.692,11.6755 C35.3066647,11.8625009 34.9751681,12.1288316 34.6975,12.4745 C34.4198319,12.8201684 34.2045008,13.2423308 34.0515,13.741 C33.8984992,14.2396692 33.822,14.8006636 33.822,15.424 C33.822,16.6933397 34.0996639,17.6878297 34.655,18.4075 C35.2103361,19.1271703 35.952662,19.487 36.882,19.487 C37.3806692,19.487 37.8169981,19.3906676 38.191,19.198 C38.5650019,19.0053324 38.9106651,18.7333351 39.228,18.382 L40.316,19.589 C39.8626644,20.1103359 39.3498362,20.5098319 38.7775,20.7875 C38.2051638,21.0651681 37.5620036,21.204 36.848,21.204 C36.1453298,21.204 35.4851698,21.0793346 34.8675,20.83 C34.2498302,20.5806654 33.7143356,20.2123358 33.261,19.725 C32.8076644,19.2376642 32.450668,18.6370036 32.19,17.923 C31.929332,17.2089964 31.799,16.3930046 31.799,15.475 Z M46.844,16.444 L46.453,15.084 C46.2829992,14.4946637 46.1130009,13.8883365 45.943,13.265 C45.7729992,12.6416636 45.6086675,12.0240031 45.45,11.412 L45.382,11.412 C45.2233325,12.0353364 45.0646675,12.6558302 44.906,13.2735 C44.7473325,13.8911698 44.5773342,14.4946637 44.396,15.084 L44.005,16.444 L46.844,16.444 Z M47.286,17.991 L43.563,17.991 L42.696,21 L40.673,21 L44.311,9.882 L46.623,9.882 L50.244,21 L48.153,21 L47.286,17.991 Z M51.57,9.882 L53.593,9.882 L57.044,16.138 L58.2,18.501 L58.268,18.501 C58.2113331,17.9229971 58.154667,17.3025033 58.098,16.6395 C58.0413331,15.9764967 58.013,15.3333364 58.013,14.71 L58.013,9.882 L59.883,9.882 L59.883,21 L57.86,21 L54.409,14.744 L53.253,12.381 L53.185,12.381 C53.241667,12.9703363 53.2983331,13.5879968 53.355,14.234 C53.411667,14.8800032 53.44,15.5146636 53.44,16.138 L53.44,21 L51.57,21 L51.57,9.882 Z M64.915,11.548 L61.702,11.548 L61.702,9.882 L70.083,9.882 L70.083,11.548 L66.887,11.548 L66.887,21 L64.915,21 L64.915,11.548 Z M71.902,9.882 L73.874,9.882 L73.874,21 L71.902,21 L71.902,9.882 Z M76.645,9.882 L83.326,9.882 L83.326,11.548 L78.617,11.548 L78.617,14.387 L82.612,14.387 L82.612,16.053 L78.617,16.053 L78.617,19.334 L83.496,19.334 L83.496,21 L76.645,21 L76.645,9.882 Z M87.695,15.084 L89.259,15.084 C90.0296705,15.084 90.6133314,14.9253349 91.01,14.608 C91.4066687,14.2906651 91.605,13.8146698 91.605,13.18 C91.605,12.5339968 91.4066687,12.0863346 91.01,11.837 C90.6133314,11.5876654 90.0296705,11.463 89.259,11.463 L87.695,11.463 L87.695,15.084 Z M91.775,21 L89.378,16.648 L87.695,16.648 L87.695,21 L85.723,21 L85.723,9.882 L89.463,9.882 C90.0410029,9.882 90.5793308,9.9386661 91.078,10.052 C91.5766692,10.1653339 92.0101648,10.3494987 92.3785,10.6045 C92.7468352,10.8595013 93.0358323,11.1966646 93.2455,11.616 C93.4551677,12.0353354 93.56,12.5566635 93.56,13.18 C93.56,14.0300042 93.3588353,14.7156641 92.9565,15.237 C92.5541647,15.7583359 92.0130034,16.1323322 91.333,16.359 L93.985,21 L91.775,21 Z M95.855,9.882 L102.536,9.882 L102.536,11.548 L97.827,11.548 L97.827,14.387 L101.822,14.387 L101.822,16.053 L97.827,16.053 L97.827,19.334 L102.706,19.334 L102.706,21 L95.855,21 L95.855,9.882 Z M108.418,9.882 L110.39,9.882 L110.39,14.931 L110.441,14.931 L114.402,9.882 L116.578,9.882 L113.161,14.217 L117.156,21 L114.98,21 L111.988,15.764 L110.39,17.753 L110.39,21 L108.418,21 L108.418,9.882 Z M118.516,9.882 L120.488,9.882 L120.488,21 L118.516,21 L118.516,9.882 Z M122.664,15.475 C122.664,14.5683288 122.797165,13.7551703 123.0635,13.0355 C123.329835,12.3158297 123.695331,11.7066692 124.16,11.208 C124.624669,10.7093308 125.168664,10.329668 125.792,10.069 C126.415336,9.80833203 127.083996,9.678 127.798,9.678 C128.478003,9.678 129.087164,9.81966525 129.6255,10.103 C130.163836,10.3863347 130.608665,10.7149981 130.96,11.089 L129.872,12.313 C129.577332,12.0296653 129.268502,11.8058342 128.9455,11.6415 C128.622498,11.4771658 128.245669,11.395 127.815,11.395 C127.361664,11.395 126.942335,11.4884991 126.557,11.6755 C126.171665,11.8625009 125.840168,12.1288316 125.5625,12.4745 C125.284832,12.8201684 125.069501,13.2423308 124.9165,13.741 C124.763499,14.2396692 124.687,14.8006636 124.687,15.424 C124.687,16.6933397 124.964664,17.6878297 125.52,18.4075 C126.075336,19.1271703 126.817662,19.487 127.747,19.487 C128.245669,19.487 128.681998,19.3906676 129.056,19.198 C129.430002,19.0053324 129.775665,18.7333351 130.093,18.382 L131.181,19.589 C130.727664,20.1103359 130.214836,20.5098319 129.6425,20.7875 C129.070164,21.0651681 128.427004,21.204 127.713,21.204 C127.01033,21.204 126.35017,21.0793346 125.7325,20.83 C125.11483,20.5806654 124.579336,20.2123358 124.126,19.725 C123.672664,19.2376642 123.315668,18.6370036 123.055,17.923 C122.794332,17.2089964 122.664,16.3930046 122.664,15.475 Z M133,9.882 L134.972,9.882 L134.972,14.931 L135.023,14.931 L138.984,9.882 L141.16,9.882 L137.743,14.217 L141.738,21 L139.562,21 L136.57,15.764 L134.972,17.753 L134.972,21 L133,21 L133,9.882 Z M147.416,21.204 C146.690663,21.204 146.02767,21.0708347 145.427,20.8045 C144.82633,20.5381653 144.307836,20.1528359 143.8715,19.6485 C143.435164,19.1441641 143.098001,18.5350036 142.86,17.821 C142.621999,17.1069964 142.503,16.2966712 142.503,15.39 C142.503,14.4946622 142.621999,13.6928369 142.86,12.9845 C143.098001,12.2761631 143.435164,11.6783358 143.8715,11.191 C144.307836,10.7036642 144.82633,10.329668 145.427,10.069 C146.02767,9.80833203 146.690663,9.678 147.416,9.678 C148.141337,9.678 148.80433,9.80833203 149.405,10.069 C150.00567,10.329668 150.521331,10.7036642 150.952,11.191 C151.382669,11.6783358 151.716999,12.2761631 151.955,12.9845 C152.193001,13.6928369 152.312,14.4946622 152.312,15.39 C152.312,16.2966712 152.193001,17.1069964 151.955,17.821 C151.716999,18.5350036 151.382669,19.1441641 150.952,19.6485 C150.521331,20.1528359 150.00567,20.5381653 149.405,20.8045 C148.80433,21.0708347 148.141337,21.204 147.416,21.204 Z M147.416,19.487 C147.846669,19.487 148.240498,19.3906676 148.5975,19.198 C148.954502,19.0053324 149.257665,18.7305018 149.507,18.3735 C149.756335,18.0164982 149.948999,17.5858359 150.085,17.0815 C150.221001,16.5771641 150.289,16.0133365 150.289,15.39 C150.289,14.1433271 150.028336,13.1658369 149.507,12.4575 C148.985664,11.7491631 148.288671,11.395 147.416,11.395 C146.531996,11.395 145.829336,11.7491631 145.308,12.4575 C144.786664,13.1658369 144.526,14.1433271 144.526,15.39 C144.526,16.0133365 144.593999,16.5771641 144.73,17.0815 C144.866001,17.5858359 145.061499,18.0164982 145.3165,18.3735 C145.571501,18.7305018 145.874665,19.0053324 146.226,19.198 C146.577335,19.3906676 146.973998,19.487 147.416,19.487 Z M154.505,9.882 L161.22,9.882 L161.22,11.548 L156.477,11.548 L156.477,14.693 L160.506,14.693 L160.506,16.359 L156.477,16.359 L156.477,21 L154.505,21 L154.505,9.882 Z M163.107,9.882 L169.822,9.882 L169.822,11.548 L165.079,11.548 L165.079,14.693 L169.108,14.693 L169.108,16.359 L165.079,16.359 L165.079,21 L163.107,21 L163.107,9.882 Z" id="CANTIERE-KICKOFF" fill="#434343"></path>
                <g id="">
                    <use fill="#8BB174" xlink:href="#path-2"></use>
                    <use fill="url(#linearGradient-1)" xlink:href="#path-2"></use>
                </g>
                <g id="-copy">
                    <use fill="#8BB174" xlink:href="#path-3"></use>
                    <use fill="url(#linearGradient-1)" xlink:href="#path-3"></use>
                </g>
            </g>
        </g>
    </g>
</svg>